<svg width="55" height="55" viewBox="0 0 55 55" fill="none" xmlns="http://www.w3.org/2000/svg">
<circle cx="27.5" cy="27.5" r="27" stroke="#303030"/>
<path d="M21.9404 19C21.9402 19.5304 21.7292 20.039 21.3539 20.4139C20.9787 20.7888 20.4699 20.9993 19.9394 20.999C19.409 20.9987 18.9004 20.7878 18.5255 20.4125C18.1506 20.0372 17.9402 19.5284 17.9404 18.998C17.9407 18.4676 18.1517 17.959 18.5269 17.5841C18.9022 17.2092 19.411 16.9987 19.9414 16.999C20.4719 16.9993 20.9805 17.2102 21.3554 17.5855C21.7302 17.9608 21.9407 18.4696 21.9404 19ZM22.0004 22.48H18.0004V35H22.0004V22.48ZM28.3204 22.48H24.3404V35H28.2804V28.43C28.2804 24.77 33.0504 24.43 33.0504 28.43V35H37.0004V27.07C37.0004 20.9 29.9404 21.13 28.2804 24.16L28.3204 22.48Z" fill="#8C8C8C"/>
</svg>
