<svg width="55" height="55" viewBox="0 0 55 55" fill="none" xmlns="http://www.w3.org/2000/svg">
<circle cx="27.5" cy="27.5" r="27" stroke="#303030"/>
<path d="M19 35C18.45 35 17.979 34.804 17.587 34.412C17.195 34.02 16.9993 33.5493 17 33V21C17 20.45 17.196 19.979 17.588 19.587C17.98 19.195 18.4507 18.9993 19 19H35C35.55 19 36.021 19.196 36.413 19.588C36.805 19.98 37.0007 20.4507 37 21V33C37 33.55 36.804 34.021 36.412 34.413C36.02 34.805 35.5493 35.0007 35 35H19ZM27 28L19 23V33H35V23L27 28ZM27 26L35 21H19L27 26ZM19 23V21V33V23Z" fill="#8C8C8C"/>
</svg>
