<svg width="60" height="60" viewBox="0 0 60 60" fill="none" xmlns="http://www.w3.org/2000/svg">
<g clip-path="url(#clip0_110_663)">
<path d="M30 0C22.0453 0 14.4094 3.16266 8.78906 8.78672C3.16295 14.413 0.00155845 22.0433 0 30C0 37.9533 3.16406 45.5892 8.78906 51.2133C14.4094 56.8373 22.0453 60 30 60C37.9547 60 45.5906 56.8373 51.2109 51.2133C56.8359 45.5892 60 37.9533 60 30C60 22.0467 56.8359 14.4108 51.2109 8.78672C45.5906 3.16266 37.9547 0 30 0Z" fill="url(#paint0_linear_110_663)"/>
<path d="M13.5801 29.6831C22.327 25.8731 28.1582 23.3611 31.0738 22.1475C39.4082 18.682 41.1379 18.0802 42.2676 18.0598C42.516 18.0558 43.0692 18.1172 43.4301 18.409C43.7301 18.6551 43.8145 18.9879 43.8567 19.2216C43.8942 19.455 43.9457 19.987 43.9035 20.4023C43.4535 25.1461 41.4988 36.6577 40.5051 41.9709C40.0879 44.2191 39.2582 44.9728 38.4567 45.0464C36.7129 45.2067 35.391 43.8951 33.7035 42.7894C31.0645 41.0583 29.5738 39.9811 27.0098 38.2922C24.0473 36.3403 25.9692 35.2673 27.6567 33.5142C28.0973 33.0553 35.7754 26.0733 35.9207 25.44C35.9395 25.3608 35.9582 25.0655 35.7801 24.9098C35.6067 24.7537 35.3488 24.8072 35.1613 24.8494C34.8942 24.9094 30.6801 27.6975 22.5051 33.2133C21.3098 34.0355 20.227 34.4362 19.252 34.4152C18.1832 34.3922 16.1207 33.8095 14.5879 33.3117C12.7129 32.7009 11.2176 32.378 11.3488 31.3406C11.4145 30.8006 12.1598 30.248 13.5801 29.6831Z" fill="white"/>
</g>
<defs>
<linearGradient id="paint0_linear_110_663" x1="3000" y1="0" x2="3000" y2="6000" gradientUnits="userSpaceOnUse">
<stop stop-color="#2AABEE"/>
<stop offset="1" stop-color="#229ED9"/>
</linearGradient>
<clipPath id="clip0_110_663">
<rect width="60" height="60" fill="white"/>
</clipPath>
</defs>
</svg>
