<svg width="55" height="55" viewBox="0 0 55 55" fill="none" xmlns="http://www.w3.org/2000/svg">
<circle cx="27.5" cy="27.5" r="27" stroke="#303030"/>
<path d="M35.5522 18.997C35.3115 19.0145 35.0751 19.071 34.8525 19.1643H34.8495C34.6357 19.249 33.6195 19.6765 32.0745 20.3245L26.538 22.6563C22.5652 24.3288 18.66 25.9758 18.66 25.9758L18.7065 25.9578C18.7065 25.9578 18.4372 26.0463 18.156 26.239C17.9822 26.3496 17.8327 26.4942 17.7165 26.6643C17.5785 26.8668 17.4675 27.1765 17.5087 27.4968C17.5762 28.0383 17.9272 28.363 18.1792 28.5423C18.4342 28.7238 18.6772 28.8085 18.6772 28.8085H18.6832L22.3455 30.0423C22.5097 30.5695 23.4615 33.6985 23.6902 34.4193C23.8252 34.8498 23.9565 35.119 24.1207 35.3245C24.2002 35.4295 24.2932 35.5173 24.405 35.5878C24.4631 35.6215 24.525 35.6482 24.5895 35.6673L24.552 35.6583C24.5632 35.6613 24.5722 35.6703 24.5805 35.6733C24.6105 35.6815 24.6307 35.6845 24.669 35.6905C25.2487 35.866 25.7145 35.506 25.7145 35.506L25.7407 35.485L27.903 33.5163L31.527 36.2965L31.6095 36.3318C32.3647 36.6633 33.1297 36.4788 33.534 36.1533C33.9412 35.8255 34.0995 35.4063 34.0995 35.4063L34.1257 35.3388L36.9262 20.992C37.0057 20.638 37.026 20.3065 36.9382 19.9848C36.8477 19.6591 36.6388 19.3791 36.3525 19.1995C36.112 19.0533 35.8332 18.9828 35.5522 18.997ZM35.4765 20.5345C35.4735 20.5818 35.4825 20.5765 35.4615 20.6673V20.6755L32.6872 34.873C32.6752 34.8933 32.655 34.9375 32.5995 34.9818C32.541 35.0283 32.4945 35.0575 32.2507 34.9608L27.8182 31.5625L25.1407 34.003L25.7032 30.4105L32.9452 23.6605C33.2437 23.383 33.144 23.3245 33.144 23.3245C33.165 22.984 32.6932 23.2248 32.6932 23.2248L23.5612 28.882L23.5582 28.867L19.1812 27.3933V27.3903L19.17 27.388C19.1776 27.3855 19.1852 27.3824 19.1925 27.379L19.2165 27.367L19.2397 27.3588C19.2397 27.3588 23.148 25.7118 27.1207 24.0393C29.1097 23.2015 31.1137 22.3578 32.655 21.7068C33.569 21.322 34.484 20.9395 35.4 20.5593C35.4615 20.5353 35.4322 20.5345 35.4765 20.5345Z" fill="#8C8C8C"/>
</svg>
